<svg xmlns="http://www.w3.org/2000/svg" viewBox="0 0 128 128" id="iota"><path d="M87.5 128h-47C18.1 128 0 109.9 0 87.5v-47C0 18.1 18.1 0 40.5 0h47C109.9 0 128 18.1 128 40.5v47c0 22.4-18.1 40.5-40.5 40.5z"></path><path fill="#fff" d="M79.6 24.9c-.1-2.8 2.4-5.4 5.6-5.3 2.8.1 5.1 2.5 5.1 5.4 0 3-2.5 5.3-5.6 5.3-2.8 0-5.1-2.5-5.1-5.4zM91 95.4c3 0 5.3 2.3 5.3 5.3s-2.4 5.4-5.4 5.4c-2.9 0-5.3-2.4-5.3-5.4 0-3 2.4-5.3 5.4-5.3zM22.4 73.4c-3 0-5.3-2.4-5.3-5.5 0-2.9 2.4-5.2 5.4-5.2 3 0 5.3 2.4 5.3 5.5-.1 2.9-2.5 5.2-5.4 5.2zM81.9 39.2c0-2.6 2-4.6 4.6-4.6 2.5 0 4.6 2.1 4.6 4.6 0 2.5-2.1 4.6-4.6 4.6-2.6 0-4.6-2.1-4.6-4.6zM33.9 55.1c2.6 0 4.6 2 4.7 4.5 0 2.5-2.1 4.6-4.6 4.6-2.5 0-4.6-2.1-4.6-4.6-.1-2.5 2-4.5 4.5-4.5zM98.4 45.4c-2.5 0-4.6-2.1-4.6-4.6 0-2.6 2.1-4.6 4.6-4.6 2.5 0 4.6 2.1 4.6 4.6 0 2.6-2 4.6-4.6 4.6zM77.9 99.5c-2.5 0-4.6-2.1-4.6-4.6 0-2.5 2-4.5 4.6-4.6 2.5 0 4.6 2.1 4.6 4.6 0 2.5-2.1 4.6-4.6 4.6zM33.9 48.5c0 2.5-2.1 4.6-4.6 4.6-2.5 0-4.5-2.1-4.5-4.6 0-2.5 2.1-4.6 4.6-4.6 2.5-.1 4.6 2 4.5 4.6zM70.4 109c-2.5 0-4.5-2-4.5-4.6 0-2.5 2-4.5 4.6-4.6 2.5 0 4.6 2.1 4.6 4.6-.1 2.6-2.1 4.6-4.7 4.6zM56.9 97.1c0-2.2 1.7-3.9 3.9-3.9s3.9 1.8 3.9 4-1.8 3.9-3.9 3.9c-2.2 0-3.9-1.8-3.9-4zM100.9 52.9c0 2.2-1.8 3.9-3.9 3.9-2.1 0-3.9-1.8-3.9-3.9 0-2.2 1.8-4 3.9-3.9 2.1 0 3.9 1.7 3.9 3.9zM44.4 43.7c0 2.2-1.7 3.9-3.9 3.9s-3.9-1.7-3.9-4c0-2.2 1.7-3.9 3.9-3.9 2.3.1 4 1.8 3.9 4zM49 54.9c0 2.2-1.7 3.9-3.9 3.9s-3.9-1.7-3.9-3.9 1.7-4 3.9-3.9c2.2 0 3.9 1.7 3.9 3.9zM35 33.5c0-2.2 1.8-3.9 3.9-3.9 2.2 0 3.9 1.8 3.9 3.9 0 2.2-1.7 3.9-3.9 3.9S35 35.7 35 33.5zM81.1 51.3c0-2.2 1.7-3.9 3.9-3.9s4 1.8 3.9 4c0 2.2-1.8 3.9-3.9 3.9-2.2-.2-3.9-1.9-3.9-4zM68.2 83.7c2.1 0 3.9 1.8 3.9 3.9 0 2.2-1.8 3.9-4 3.9s-3.9-1.7-3.9-3.9c.1-2.2 1.9-3.9 4-3.9zM56.7 103.6c0 2.2-1.7 3.9-3.9 3.9s-3.9-1.7-3.9-3.9 1.8-4 3.9-3.9c2.2 0 3.9 1.7 3.9 3.9zM106.5 60.5c-2.1 0-3.8-1.8-3.9-3.9 0-2.2 1.8-3.9 4-3.9 2.1 0 3.9 1.8 3.9 3.9 0 2.2-1.8 3.9-4 3.9zM57.5 89.3c0 1.9-1.5 3.4-3.4 3.3-1.9 0-3.4-1.5-3.4-3.3 0-1.9 1.5-3.4 3.4-3.4s3.4 1.5 3.4 3.4zM50.7 38.5c1.9 0 3.3 1.5 3.3 3.3 0 1.8-1.5 3.4-3.3 3.4-1.8 0-3.4-1.5-3.4-3.4.1-1.8 1.6-3.3 3.4-3.3zM58.2 79.7c0-1.9 1.4-3.4 3.3-3.4s3.4 1.5 3.4 3.3c0 1.9-1.5 3.3-3.3 3.3-1.9.1-3.4-1.3-3.4-3.2zM46.2 99.1c-1.9 0-3.4-1.4-3.4-3.3s1.5-3.3 3.3-3.4c1.9 0 3.4 1.5 3.4 3.4 0 1.8-1.5 3.3-3.3 3.3zM84.7 61c0 1.8-1.4 3.3-3.3 3.3s-3.4-1.5-3.3-3.4c0-1.9 1.5-3.3 3.3-3.3 1.9 0 3.3 1.5 3.3 3.4zM49.1 35c-1.9 0-3.4-1.4-3.4-3.3s1.5-3.4 3.4-3.4c1.8 0 3.3 1.5 3.4 3.4 0 1.8-1.5 3.3-3.4 3.3zM93.4 66c-1.9 0-3.3-1.5-3.3-3.3 0-1.8 1.5-3.3 3.4-3.3s3.3 1.5 3.3 3.4c0 1.8-1.5 3.2-3.4 3.2zM55.2 56.4c-1.8 0-3.3-1.5-3.3-3.4 0-1.8 1.6-3.3 3.4-3.3 1.9 0 3.3 1.5 3.3 3.4s-1.5 3.3-3.4 3.3zM103 69.6c-1.9-.1-3.3-1.6-3.3-3.5.1-1.8 1.6-3.3 3.4-3.2 1.9.1 3.4 1.6 3.3 3.6-.1 1.8-1.6 3.2-3.4 3.1zM64 56.4c-1.6 0-2.9-1.3-2.9-2.9 0-1.6 1.3-2.8 2.9-2.8 1.6 0 2.9 1.3 2.8 2.9.1 1.6-1.1 2.8-2.8 2.8zM95.4 73.7c0-1.6 1.2-2.9 2.8-2.9 1.6 0 2.9 1.2 2.9 2.9 0 1.6-1.4 3-2.9 3-1.5-.1-2.8-1.4-2.8-3zM60.7 32.2c0 1.6-1.2 2.8-2.9 2.8-1.6 0-2.9-1.3-2.9-2.9 0-1.6 1.3-2.9 3-2.8 1.6 0 2.8 1.3 2.8 2.9zM60.4 71.9c0 1.6-1.2 2.8-2.8 2.9-1.7 0-2.9-1.3-2.9-2.9 0-1.6 1.3-2.9 2.9-2.9 1.6 0 2.8 1.3 2.8 2.9zM50.2 84.3c-1.6 0-2.9-1.2-2.9-2.8 0-1.6 1.3-2.9 2.9-2.9 1.5 0 2.8 1.3 2.8 2.8 0 1.6-1.2 2.9-2.8 2.9zM91.5 70c0 1.6-1.2 2.9-2.9 2.9-1.5 0-2.9-1.4-2.9-2.9 0-1.6 1.3-2.9 2.9-2.9 1.7 0 2.9 1.3 2.9 2.9zM76.7 65.5c1.7 0 2.8 1.2 2.9 2.8 0 1.6-1.2 2.9-2.9 2.9-1.6 0-2.9-1.3-2.9-2.9 0-1.6 1.2-2.8 2.9-2.8zM45 87.9c0 1.6-1.3 2.9-2.9 2.9-1.6 0-2.9-1.3-2.9-2.9 0-1.6 1.3-2.9 2.9-2.9 1.6 0 2.9 1.3 2.9 2.9zM59.5 45.2c-1.6 0-2.9-1.3-2.9-2.9 0-1.5 1.3-2.9 2.9-2.9 1.5 0 2.9 1.3 2.9 2.9 0 1.6-1.3 2.9-2.9 2.9zM85.8 75.1c0 1.4-1.1 2.5-2.5 2.5s-2.4-1.1-2.4-2.5 1.1-2.5 2.4-2.5c1.3.1 2.4 1.2 2.5 2.5zM58.2 64.6c0 1.4-1.1 2.5-2.4 2.5-1.3 0-2.5-1.2-2.5-2.5s1.2-2.5 2.5-2.5c1.3.1 2.4 1.2 2.4 2.5zM40.4 78.2c1.4 0 2.5 1.1 2.4 2.5 0 1.3-1.2 2.5-2.5 2.5-1.4 0-2.5-1.2-2.5-2.6.1-1.4 1.2-2.4 2.6-2.4zM71.2 58c-1.4 0-2.5-1-2.5-2.4s1-2.5 2.5-2.5c1.4 0 2.5 1.1 2.5 2.4 0 1.5-1.1 2.5-2.5 2.5zM66.7 41.9c1.4 0 2.4 1.1 2.4 2.5s-1.1 2.5-2.4 2.5c-1.4 0-2.5-1.1-2.5-2.5s1.1-2.5 2.5-2.5zM50.7 74.2c0 1.4-1.1 2.5-2.4 2.5-1.3 0-2.5-1.2-2.5-2.6 0-1.4 1.1-2.4 2.5-2.4s2.4 1.1 2.4 2.5zM71.3 71.1c1.4 0 2.4 1.1 2.4 2.5S72.6 76 71.3 76c-1.4 0-2.5-1.1-2.5-2.5.1-1.4 1.1-2.4 2.5-2.4zM95.3 78.8c0 1.4-1 2.5-2.5 2.5-1.4 0-2.4-1.1-2.4-2.5 0-1.3 1.1-2.5 2.4-2.5 1.4 0 2.5 1.1 2.5 2.5zM65.1 31.8c1.4 0 2.4 1 2.4 2.4s-1.1 2.5-2.4 2.5c-1.4 0-2.5-1.1-2.5-2.5s1.1-2.4 2.5-2.4zM72.7 37.3c0 1.2-1 2.1-2.2 2.1-1.2 0-2.1-1-2.1-2.1 0-1.2.9-2.1 2.1-2.1 1.3 0 2.2.9 2.2 2.1zM38.1 74.2c0-1.2.9-2 2.1-2 1.2 0 2.2 1 2.1 2.2 0 1.1-1 2.1-2.1 2.1-1.2 0-2.1-1-2.1-2.3zM89.6 82.1c0 1.2-.9 2.2-2.1 2.2-1.2 0-2.2-1-2.2-2.1 0-1.2 1-2.1 2.2-2.1 1.2-.1 2.1.8 2.1 2zM50.3 67.9c0 1.2-1 2.1-2.1 2.1-1.2 0-2.1-1-2.1-2.2 0-1.1 1-2.1 2.1-2.1 1.2 0 2.1 1 2.1 2.2zM72.2 49.5c-1.2 0-2.1-.9-2.1-2.1 0-1.2.9-2.1 2.1-2.1 1.2 0 2.1.9 2.1 2.1 0 1.3-.9 2.1-2.1 2.1zM77.9 76.3c1.2 0 2.1.9 2.1 2.1 0 1.2-1 2.2-2.2 2.2-1.1 0-2-1-2-2.1 0-1.3.9-2.2 2.1-2.2zM43.1 69.1c0 1-.8 1.8-1.8 1.8s-1.9-.9-1.9-1.9c0-1 .9-1.8 1.9-1.8 1.1.1 1.8.8 1.8 1.9zM84.2 83.8c0 1-.8 1.8-1.8 1.8s-1.8-.9-1.8-1.8c0-1 .8-1.8 1.9-1.8.9 0 1.7.8 1.7 1.8zM74.5 39.1c1.1 0 1.9.7 1.9 1.8 0 1-.8 1.8-1.8 1.8s-1.8-.7-1.8-1.8c0-1 .7-1.8 1.7-1.8z"></path></svg>