<svg xmlns="http://www.w3.org/2000/svg" width="446" height="512" fill="none" viewBox="0 0 446 512" id="uniswap-uni"><g clip-path="url(#clip0_602_888)"><path fill="#FF007A" d="M174.773 116.508C169.225 115.715 168.961 115.451 171.602 115.187C176.622 114.394 188.246 115.451 196.436 117.3C215.458 121.792 232.63 133.416 250.859 153.759L255.615 159.306L262.484 158.25C291.809 153.494 321.927 157.193 347.025 168.817C353.893 171.988 364.725 178.328 366.046 179.913C366.575 180.442 367.367 183.876 367.896 187.311C369.745 199.728 368.952 208.974 364.989 216.107C362.876 220.07 362.876 221.127 364.197 224.561C365.254 227.203 368.424 229.053 371.33 229.053C377.671 229.053 384.275 219.013 387.446 205.011L388.767 199.463L391.144 202.105C404.618 217.164 415.186 238.035 416.771 252.83L417.299 256.793L414.921 253.358C410.959 247.282 407.26 243.319 402.24 239.884C393.258 233.808 383.747 231.959 358.649 230.638C335.929 229.317 322.983 227.467 310.302 223.24C288.639 216.107 277.543 206.861 251.916 172.78C240.556 157.721 233.423 149.531 226.29 142.663C210.703 127.604 195.115 119.678 174.773 116.508Z"></path><path fill="#FF007A" d="M371.595 150.06C372.123 140.021 373.444 133.416 376.351 127.34 377.407 124.962 378.464 122.848 378.728 122.848 378.992 122.848 378.464 124.698 377.671 126.811 375.558 132.623 375.294 140.813 376.615 150.06 378.464 161.948 379.257 163.534 391.938 176.479 397.75 182.555 404.619 190.217 407.261 193.387L411.752 199.199 407.261 194.972C401.713 189.688 389.032 179.649 386.126 178.328 384.276 177.271 384.012 177.271 382.691 178.592 381.634 179.649 381.37 181.234 381.37 188.896 381.106 200.784 379.521 208.182 375.558 215.843 373.444 219.806 373.18 219.013 375.03 214.522 376.351 211.088 376.615 209.503 376.615 198.142 376.615 175.158 373.973 169.61 357.857 160.363 353.894 157.986 347.025 154.551 343.063 152.702 338.836 150.852 335.665 149.267 335.929 149.267 336.458 148.739 352.045 153.23 358.121 155.872 367.368 159.571 368.953 159.835 370.01 159.571 370.802 158.778 371.331 156.665 371.595 150.06zM185.606 189.424C174.51 174.101 167.377 150.324 168.962 132.623L169.49 127.075 172.132 127.604C176.888 128.396 185.078 131.567 189.04 133.944 199.608 140.285 204.364 149.003 208.855 170.667 210.176 177.007 212.025 184.405 212.818 186.782 214.139 190.745 219.158 199.992 223.385 205.804 226.291 210.031 224.442 212.144 217.837 211.616 207.798 210.559 194.324 201.313 185.606 189.424zM358.121 304.347C305.812 283.212 287.318 264.982 287.318 234.072 287.318 229.581 287.583 225.882 287.583 225.882 287.847 225.882 289.696 227.468 292.074 229.317 302.641 237.771 314.53 241.47 347.554 246.225 366.84 249.131 377.935 251.245 387.975 254.679 419.942 265.247 439.756 286.91 444.511 316.235 445.832 324.689 445.04 340.805 442.926 349.259 441.077 355.864 435.793 368.016 434.472 368.281 434.208 368.281 433.68 366.96 433.68 364.846 433.151 353.75 427.603 343.183 418.357 334.993 407.261 325.482 392.994 318.349 358.121 304.347zM321.135 313.065C320.607 309.102 319.286 304.083 318.493 301.969L317.172 298.006 319.55 300.912C322.984 304.875 325.626 309.631 328.004 316.235 329.853 321.255 329.853 322.84 329.853 331.03 329.853 338.956 329.589 340.805 328.004 345.296 325.362 352.429 322.192 357.449 316.908 362.997 307.397 372.772 294.98 378.056 277.28 380.433 274.109 380.698 265.127 381.49 257.201 382.019 237.387 383.075 224.177 385.189 212.289 389.416 210.704 389.944 209.119 390.473 208.854 390.208 208.326 389.68 216.516 384.925 223.121 381.754 232.367 377.263 241.878 374.885 262.749 371.187 273.053 369.602 283.62 367.488 286.262 366.431 312.417 358.241 325.362 337.899 321.135 313.065z"></path><path fill="#FF007A" d="M345.176 355.6C338.307 340.541 336.722 326.275 340.42 312.801 340.949 311.48 341.477 310.159 342.005 310.159 342.534 310.159 344.119 310.951 345.704 312.008 348.874 314.122 355.479 317.82 372.387 327.067 393.787 338.691 405.939 347.674 414.393 357.977 421.791 366.96 426.282 377.263 428.396 389.944 429.716 397.077 428.924 414.25 427.075 421.383 421.262 443.839 408.053 461.804 388.767 472.107 385.861 473.692 383.483 474.749 383.219 474.749 382.955 474.749 384.012 472.107 385.597 468.937 391.937 455.463 392.73 442.518 387.974 427.988 385.068 419.005 378.992 408.173 366.839 389.944 352.309 368.809 348.874 363.261 345.176 355.6zM148.355 436.442C167.905 420.062 191.946 408.438 214.138 404.739 223.649 403.154 239.5 403.682 248.218 406.06 262.22 409.758 274.902 417.684 281.506 427.459 287.847 436.97 290.753 445.16 293.659 463.389 294.716 470.522 296.037 477.919 296.301 479.505 298.414 489.015 302.642 496.413 307.925 500.376 316.115 506.452 330.381 506.716 344.384 501.432 346.761 500.64 348.875 499.847 348.875 500.111 349.403 500.64 342.27 505.395 337.515 507.773 330.91 511.207 325.626 512.264 318.493 512.264 305.812 512.264 294.98 505.659 286.262 492.45 284.412 489.808 280.714 482.147 277.543 475.013 268.297 453.614 263.541 447.273 252.71 440.14 243.199 434.064 231.046 432.743 221.799 437.234 209.647 443.046 206.476 458.634 214.93 468.144 218.365 472.107 224.706 475.278 229.989 476.07 239.764 477.391 248.218 469.73 248.218 459.955 248.218 453.614 245.841 449.915 239.5 447.009 231.046 443.311 221.799 447.538 222.064 455.728 222.064 459.162 223.649 461.275 227.083 462.861 229.197 463.917 229.197 463.917 227.612 463.653 219.95 462.068 218.101 452.557 224.177 446.481 231.574 439.084 247.162 442.254 252.445 452.557 254.559 456.784 254.823 465.238 252.974 470.522 248.483 482.147 235.801 488.223 222.856 484.788 214.138 482.411 210.439 480.033 199.872 469.201 181.378 450.18 174.245 446.481 147.826 442.518L142.807 441.725 148.355 436.442z"></path><path fill="#FF007A" fill-rule="evenodd" d="M9.39069 11.3602C70.9469 86.1259 165.791 202.369 170.547 208.71 174.509 213.994 172.924 219.013 166.319 222.712 162.621 224.826 154.959 226.939 151.261 226.939 147.034 226.939 142.014 224.826 138.58 221.391 136.202 219.013 125.898 203.955 102.65 167.761 84.949 140.021 69.8902 117.036 69.626 116.772 68.5692 116.244 68.5692 116.244 100.8 173.837 121.143 210.031 127.748 222.976 127.748 224.561 127.748 227.996 126.691 229.845 122.464 234.601 115.331 242.526 112.161 251.509 109.783 270.266 107.141 291.137 100.008 305.932 79.6652 331.03 67.7767 345.825 65.9273 348.466 63.0212 354.543 59.3226 361.94 58.2658 366.167 57.7374 375.678 57.2091 385.717 58.2658 392.058 61.1719 401.569 63.8138 410.023 66.7199 415.571 73.853 426.402 79.9294 435.913 83.6281 443.046 83.6281 445.688 83.6281 447.802 84.1564 447.802 93.6673 445.688 116.388 440.405 135.145 431.422 145.448 420.326 151.789 413.457 153.374 409.759 153.374 400.248 153.374 394.171 153.11 392.85 151.525 389.152 148.883 383.34 143.863 378.584 133.032 371.187 118.765 361.412 112.689 353.486 111.104 342.918 109.783 333.936 111.368 327.86 119.294 311.216 127.484 294.043 129.597 286.91 130.918 269.474 131.711 258.378 133.032 253.886 136.202 250.452 139.636 246.753 142.542 245.432 150.732 244.376 164.206 242.526 172.924 239.092 179.793 232.487 185.87 226.939 188.511 221.391 188.776 213.201L189.04 207.125 185.605 203.426C173.188 189.16 1.20081 0 .408236 0 .144046 0 4.37108 5.01961 9.39069 11.3602zM90.497 387.038C93.4031 382.019 91.8179 375.678 87.0625 372.508 82.5713 369.602 75.7024 370.923 75.7024 374.885 75.7024 375.942 76.2307 376.999 77.8159 377.527 80.1936 378.848 80.4578 380.169 78.6084 383.075 76.7591 385.981 76.7591 388.623 79.1368 390.473 82.8355 393.379 87.8551 391.794 90.497 387.038zM197.494 248.074C191.154 249.924 185.077 256.793 183.228 263.662 182.171 267.889 182.7 275.55 184.549 277.928 187.455 281.626 190.097 282.683 197.494 282.683 212.025 282.683 224.442 276.343 225.763 268.681 227.084 262.341 221.536 253.622 213.874 249.659 209.911 247.546 201.721 246.753 197.494 248.074zM214.402 261.284C216.516 258.114 215.723 254.679 211.761 252.301 204.627 247.81 193.796 251.509 193.796 258.378 193.796 261.812 199.344 265.511 204.627 265.511 208.062 265.511 212.817 263.397 214.402 261.284z" clip-rule="evenodd"></path></g><defs><clipPath id="clip0_602_888"><rect width="444.632" height="512" fill="#fff" transform="translate(.408)"></rect></clipPath></defs></svg>